<?xml version="1.0" standalone="no"?>
<!DOCTYPE svg PUBLIC "-//W3C//DTD SVG 20010904//EN"
 "http://www.w3.org/TR/2001/REC-SVG-20010904/DTD/svg10.dtd">
<svg version="1.0" xmlns="http://www.w3.org/2000/svg"
 width="150.000000pt" height="150.000000pt" viewBox="0 0 150.000000 150.000000"
 preserveAspectRatio="xMidYMid meet">

<g transform="translate(0.000000,150.000000) scale(0.100000,-0.100000)"
fill="#000000" stroke="none">
<path d="M468 1269 l-278 -161 1 -337 c1 -185 4 -347 8 -360 5 -18 69 -60 271
-177 146 -84 272 -154 280 -154 8 0 134 70 280 154 202 117 266 159 271 177 4
13 7 175 8 361 l1 336 -279 161 c-153 89 -280 161 -282 161 -2 0 -129 -73
-281 -161z m337 -96 c27 -15 74 -37 104 -49 31 -13 56 -29 56 -36 0 -21 -54
-13 -139 21 l-78 31 -101 -40 c-95 -38 -102 -40 -114 -24 -19 27 -17 29 40 47
30 9 78 30 108 47 30 16 59 30 65 30 6 0 33 -12 59 -27z m-301 -99 c11 -28 7
-33 -28 -39 -24 -5 -42 -2 -61 11 l-28 18 34 12 c48 17 76 17 83 -2z m539 5
c41 -11 47 -23 18 -39 -17 -9 -45 -3 -79 16 -5 2 10 34 17 34 3 0 23 -5 44
-11z m-365 -21 c7 -7 12 -42 12 -85 l0 -73 -45 0 c-42 0 -45 2 -45 28 0 15 -9
42 -20 60 -27 44 -26 47 18 65 46 20 64 21 80 5z m235 -7 l28 -11 -18 -30
c-20 -35 -25 -36 -80 -10 -48 21 -50 26 -26 53 18 19 41 19 96 -2z m-507 -27
c18 -12 24 -25 23 -48 -1 -17 2 -64 6 -103 l8 -73 -25 0 c-15 0 -29 7 -32 16
-9 24 -20 224 -12 224 4 0 18 -7 32 -16z m720 -71 c-11 -140 -14 -153 -39
-153 -21 0 -22 3 -21 107 1 90 4 108 20 120 40 30 46 19 40 -74z m-116 62 c17
-9 30 -22 30 -29 0 -8 3 -21 6 -29 8 -21 -78 -71 -106 -62 -27 9 -26 55 3 100
25 40 28 40 67 20z m-458 -28 c8 -17 19 -47 23 -66 l7 -34 -32 7 c-18 3 -48
16 -67 27 -29 18 -34 26 -31 53 2 25 8 32 33 37 49 11 51 10 67 -24z m308 -22
c23 -12 30 -22 30 -45 0 -29 -2 -30 -45 -30 l-45 0 0 45 c0 51 10 56 60 30z
m-254 -217 c12 -48 12 -48 -26 -90 -25 -28 -42 -40 -48 -33 -14 14 -54 127
-47 133 20 20 64 41 84 39 21 -2 27 -10 37 -49z m84 -15 l0 -66 -24 22 c-13
13 -27 35 -31 49 -3 15 -8 35 -11 45 -4 14 1 17 30 17 l36 0 0 -67z m201 19
c5 -38 1 -49 -38 -107 -24 -36 -46 -65 -48 -65 -3 0 -5 50 -5 111 l0 110 43
-3 c41 -3 42 -4 48 -46z m107 20 c27 -17 27 -25 2 -80 l-20 -43 -29 33 c-16
19 -31 51 -36 75 l-7 43 34 -7 c18 -3 43 -13 56 -21z m99 -7 c5 -3 -44 -140
-62 -175 -17 -32 -18 -33 -31 -15 -18 25 -18 28 10 83 13 27 28 65 31 85 6 33
10 37 29 31 11 -4 22 -7 23 -9z m-620 -77 c27 -74 29 -84 15 -95 -9 -7 -19
-13 -23 -13 -8 0 -54 112 -64 158 -6 29 -4 32 18 32 21 0 28 -10 54 -82z m196
-36 c23 -21 25 -193 2 -212 -21 -17 -37 -2 -86 82 l-40 68 43 44 c43 44 49 45
81 18z m271 -1 l28 -29 -20 -38 c-11 -22 -29 -47 -40 -58 -20 -18 -22 -18 -51
4 -17 12 -31 24 -31 27 0 10 74 123 81 123 3 0 18 -13 33 -29z m-381 -133 c20
-35 43 -71 49 -80 10 -14 10 -21 -2 -33 -13 -13 -20 -8 -58 38 -24 29 -51 65
-60 80 -16 27 -16 29 2 43 11 8 23 14 26 14 3 0 22 -28 43 -62z m437 20 c0
-11 -71 -108 -92 -126 -13 -10 -18 -9 -28 3 -10 12 -8 20 10 42 11 16 35 47
52 70 24 33 35 40 45 32 7 -7 13 -16 13 -21z m-155 -28 c27 -28 27 -30 11 -55
-17 -26 -18 -26 -37 -9 -19 17 -28 94 -11 94 5 0 21 -13 37 -30z m-88 -170
c12 0 38 14 57 31 57 49 65 23 10 -32 -60 -61 -81 -62 -151 -8 -41 32 -51 45
-42 55 8 10 20 7 57 -17 25 -16 56 -29 69 -29z"/>
</g>
</svg>
